HIERARCHY
ROOT Hips
{
    OFFSET   0.000000   0.000000   0.000000
    CHANNELS 6 Xposition Yposition Zposition Zrotation Xrotation Yrotation
    JOINT Chest
    {
        OFFSET   0.000000   8.007230   0.000000
        CHANNELS 3 Zrotation Xrotation Yrotation
        JOINT Chest2
        {
            OFFSET   0.000000  22.077100   0.000000
            CHANNELS 3 Zrotation Xrotation Yrotation
            JOINT Neck
            {
                OFFSET   0.000000  23.255100   0.000000
                CHANNELS 3 Zrotation Xrotation Yrotation
                JOINT Head
                {
                    OFFSET   0.000000  14.370100   1.956600
                    CHANNELS 3 Zrotation Xrotation Yrotation
                    End Site
                    {
                        OFFSET   0.000000  19.566000   0.000000
                    }
                }
            }
            JOINT LeftCollar
            {
                OFFSET   3.911900  19.017000  -0.467063
                CHANNELS 3 Zrotation Xrotation Yrotation
                JOINT LeftShoulder
                {
                    OFFSET  10.383700   0.000000   0.000000
                    CHANNELS 3 Zrotation Xrotation Yrotation
                    JOINT LeftElbow
                    {
                        OFFSET  26.662100   0.001193   0.000980
                        CHANNELS 3 Zrotation Xrotation Yrotation
                        JOINT LeftWrist
                        {
                            OFFSET  28.869000  -0.000059  -0.000082
                            CHANNELS 3 Zrotation Xrotation Yrotation
                            JOINT LeftFinger0
                            {
                                OFFSET   2.044650  -2.323450   3.252850
                                CHANNELS 3 Zrotation Xrotation Yrotation
                                JOINT LeftFinger01
                                {
                                    OFFSET   3.088130   0.000000   0.000000
                                    CHANNELS 3 Zrotation Xrotation Yrotation
                                    JOINT LeftFinger02
                                    {
                                        OFFSET   2.639460   0.000000   0.000000
                                        CHANNELS 3 Zrotation Xrotation Yrotation
                                        End Site
                                        {
                                            OFFSET   2.582190   0.000000   0.000000
                                        }
                                    }
                                }
                            }
                            JOINT LeftFinger1
                            {
                                OFFSET   8.364480   0.000000   3.252850
                                CHANNELS 3 Zrotation Xrotation Yrotation
                                JOINT LeftFinger11
                                {
                                    OFFSET   4.646930   0.000000   0.000000
                                    CHANNELS 3 Zrotation Xrotation Yrotation
                                    JOINT LeftFinger12
                                    {
                                        OFFSET   2.323470   0.000000   0.000000
                                        CHANNELS 3 Zrotation Xrotation Yrotation
                                        End Site
                                        {
                                            OFFSET   2.273050   0.000000   0.000000
                                        }
                                    }
                                }
                            }
                            JOINT LeftFinger2
                            {
                                OFFSET   8.364490   0.000016   1.078090
                                CHANNELS 3 Zrotation Xrotation Yrotation
                                JOINT LeftFinger21
                                {
                                    OFFSET   5.111610   0.000000   0.000000
                                    CHANNELS 3 Zrotation Xrotation Yrotation
                                    JOINT LeftFinger22
                                    {
                                        OFFSET   2.788150   0.000016   0.000000
                                        CHANNELS 3 Zrotation Xrotation Yrotation
                                        End Site
                                        {
                                            OFFSET   2.727660   0.000000   0.000000
                                        }
                                    }
                                }
                            }
                            JOINT LeftFinger3
                            {
                                OFFSET   7.899780   0.000015  -1.078090
                                CHANNELS 3 Zrotation Xrotation Yrotation
                                JOINT LeftFinger31
                                {
                                    OFFSET   4.646930   0.000000   0.000000
                                    CHANNELS 3 Zrotation Xrotation Yrotation
                                    JOINT LeftFinger32
                                    {
                                        OFFSET   2.323470   0.000000   0.000000
                                        CHANNELS 3 Zrotation Xrotation Yrotation
                                        End Site
                                        {
                                            OFFSET   2.273050   0.000000   0.000000
                                        }
                                    }
                                }
                            }
                            JOINT LeftFinger4
                            {
                                OFFSET   7.435090   0.000000  -3.252850
                                CHANNELS 3 Zrotation Xrotation Yrotation
                                JOINT LeftFinger41
                                {
                                    OFFSET   3.717550   0.000000   0.000000
                                    CHANNELS 3 Zrotation Xrotation Yrotation
                                    JOINT LeftFinger42
                                    {
                                        OFFSET   1.858770   0.000000   0.000000
                                        CHANNELS 3 Zrotation Xrotation Yrotation
                                        End Site
                                        {
                                            OFFSET   1.818440   0.000000   0.000000
                                        }
                                    }
                                }
                            }
                        }
                    }
                }
            }
            JOINT RightCollar
            {
                OFFSET  -3.911910  19.017000  -0.467062
                CHANNELS 3 Zrotation Xrotation Yrotation
                JOINT RightShoulder
                {
                    OFFSET -10.383700   0.000014   0.000000
                    CHANNELS 3 Zrotation Xrotation Yrotation
                    JOINT RightElbow
                    {
                        OFFSET -26.662100   0.001225   0.001091
                        CHANNELS 3 Zrotation Xrotation Yrotation
                        JOINT RightWrist
                        {
                            OFFSET -28.869000  -0.000020  -0.000085
                            CHANNELS 3 Zrotation Xrotation Yrotation
                            JOINT RightFinger0
                            {
                                OFFSET  -2.044650  -2.323490   3.252850
                                CHANNELS 3 Zrotation Xrotation Yrotation
                                JOINT RightFinger01
                                {
                                    OFFSET  -3.088130   0.000000   0.000000
                                    CHANNELS 3 Zrotation Xrotation Yrotation
                                    JOINT RightFinger02
                                    {
                                        OFFSET  -2.639460   0.000000   0.000000
                                        CHANNELS 3 Zrotation Xrotation Yrotation
                                        End Site
                                        {
                                            OFFSET  -2.582190   0.000000   0.000000
                                        }
                                    }
                                }
                            }
                            JOINT RightFinger1
                            {
                                OFFSET  -8.364480   0.000000   3.252850
                                CHANNELS 3 Zrotation Xrotation Yrotation
                                JOINT RightFinger11
                                {
                                    OFFSET  -4.646930   0.000000   0.000000
                                    CHANNELS 3 Zrotation Xrotation Yrotation
                                    JOINT RightFinger12
                                    {
                                        OFFSET  -2.323470   0.000000   0.000000
                                        CHANNELS 3 Zrotation Xrotation Yrotation
                                        End Site
                                        {
                                            OFFSET  -2.273050   0.000000   0.000000
                                        }
                                    }
                                }
                            }
                            JOINT RightFinger2
                            {
                                OFFSET  -8.364480   0.000000   1.078090
                                CHANNELS 3 Zrotation Xrotation Yrotation
                                JOINT RightFinger21
                                {
                                    OFFSET  -5.111620   0.000000   0.000000
                                    CHANNELS 3 Zrotation Xrotation Yrotation
                                    JOINT RightFinger22
                                    {
                                        OFFSET  -2.788160   0.000000   0.000000
                                        CHANNELS 3 Zrotation Xrotation Yrotation
                                        End Site
                                        {
                                            OFFSET  -2.727660   0.000000   0.000000
                                        }
                                    }
                                }
                            }
                            JOINT RightFinger3
                            {
                                OFFSET  -7.899780   0.000000  -1.078090
                                CHANNELS 3 Zrotation Xrotation Yrotation
                                JOINT RightFinger31
                                {
                                    OFFSET  -4.646930   0.000000   0.000000
                                    CHANNELS 3 Zrotation Xrotation Yrotation
                                    JOINT RightFinger32
                                    {
                                        OFFSET  -2.323470   0.000000   0.000000
                                        CHANNELS 3 Zrotation Xrotation Yrotation
                                        End Site
                                        {
                                            OFFSET  -2.273050   0.000000   0.000000
                                        }
                                    }
                                }
                            }
                            JOINT RightFinger4
                            {
                                OFFSET  -7.435090   0.000000  -3.252850
                                CHANNELS 3 Zrotation Xrotation Yrotation
                                JOINT RightFinger41
                                {
                                    OFFSET  -3.717550   0.000000   0.000000
                                    CHANNELS 3 Zrotation Xrotation Yrotation
                                    JOINT RightFinger42
                                    {
                                        OFFSET  -1.858760   0.000000   0.000000
                                        CHANNELS 3 Zrotation Xrotation Yrotation
                                        End Site
                                        {
                                            OFFSET  -1.818440   0.000000   0.000000
                                        }
                                    }
                                }
                            }
                        }
                    }
                }
            }
        }
    }
    JOINT LeftHip
    {
        OFFSET   9.783030   0.000000   0.000000
        CHANNELS 3 Zrotation Xrotation Yrotation
        JOINT LeftKnee
        {
            OFFSET   0.000063 -41.789100   0.000608
            CHANNELS 3 Zrotation Xrotation Yrotation
            JOINT LeftAnkle
            {
                OFFSET   0.000048 -41.133200  -0.000184
                CHANNELS 3 Zrotation Xrotation Yrotation
                JOINT LeftToe
                {
                    OFFSET   0.000000  -6.358960  14.674500
                    CHANNELS 3 Zrotation Xrotation Yrotation
                    End Site
                    {
                        OFFSET   0.000000   0.000000   3.913200
                    }
                }
            }
        }
    }
    JOINT RightHip
    {
        OFFSET  -9.783030   0.000000   0.000000
        CHANNELS 3 Zrotation Xrotation Yrotation
        JOINT RightKnee
        {
            OFFSET   0.000071 -41.789100   0.001239
            CHANNELS 3 Zrotation Xrotation Yrotation
            JOINT RightAnkle
            {
                OFFSET   0.000037 -41.133200  -0.000166
                CHANNELS 3 Zrotation Xrotation Yrotation
                JOINT RightToe
                {
                    OFFSET   0.000000  -6.358960  14.674500
                    CHANNELS 3 Zrotation Xrotation Yrotation
                    End Site
                    {
                        OFFSET   0.000000   0.000000   3.913200
                    }
                }
            }
        }
    }
}
MOTION
Frames: 6
Frame Time:   0.016667
 -0.780166  89.515200   2.309490  -3.149990  -8.045230  -4.388190   0.654021   5.026630   0.609882   1.261380  10.059700   1.168660   1.650130  -0.891331   0.016174   2.721610  -1.803050   0.837256  -5.662700  -1.361860   0.806669 -73.666700  14.688300  -0.323899  -0.899431  -1.197420 -18.612800  17.267000 -13.620800   8.082280  40.371100  36.513400 -64.722800 -33.602300   0.005594   0.003781 -11.799400   0.006316   0.005714 -32.239100   5.886680  -9.239570 -26.767100  -0.000235   0.001302 -18.737000   0.001204  -0.008066 -28.547200  -1.709940   3.142380 -37.406200   0.003089   0.000641 -24.912500   0.005325   0.000714 -28.670900  -1.716480   3.138770 -39.520600   0.004533  -0.005311 -26.320700   0.004273  -0.006556 -33.067700  -1.954120   2.997910 -49.678000   0.000590  -0.002290 -33.085600   0.003266  -0.004652  10.739300   1.310080   6.518520  67.361500   9.056640  -3.676180  -0.152971 -10.221900  10.213600 -13.387200  -6.698240   6.114870 -42.872300  28.536300  65.013800  19.671900   0.003480  -0.007531   4.835940   0.003084  -0.001103  33.895300   8.518750  12.433900  28.493100  -0.004329  -0.006786  19.945200  -0.000178  -0.001539  28.350600   1.408680   2.617500  34.950100  -0.005589  -0.000646  23.276800  -0.004869  -0.004940  26.192900   1.312400   2.668460  26.223500  -0.005135   0.003635  17.464900  -0.004872   0.002281  26.188800   0.259617   0.527898  39.284900   0.000306  -0.003280  26.163800  -0.003622   0.002518   2.851770  11.269600   2.943860   1.375990   0.038703   6.736750  -2.746000  -4.058010   1.093530   0.000000   0.000000   0.000000   3.566420   9.773610   0.078192  -1.152180   2.692070  -6.775240  -0.000692  -5.082340  -0.833904  -0.000000   0.000000   0.000000
 -0.779988  89.515200   2.324970  -3.151570  -8.030000  -4.398830   0.649041   5.026420   0.609267   1.251430  10.059200   1.167860   1.653940  -0.881092   0.016183   2.725310  -1.782420   0.854021  -5.662330  -1.361860   0.821476 -73.657600  14.695100  -0.329957  -0.902842  -1.208530 -18.606100  17.252200 -13.614900   8.075070  40.365400  36.510500 -64.717500 -33.602300   0.005588   0.003775 -11.800000   0.006319   0.005857 -32.239100   5.886370  -9.235350 -26.766700  -0.000236   0.001304 -18.736700   0.001206  -0.008065 -28.547400  -1.709950   3.141920 -37.406200   0.003089   0.000641 -24.912500   0.005324   0.000712 -28.670900  -1.716480   3.138320 -39.506100   0.004532  -0.005311 -26.311100   0.004272  -0.006555 -33.061500  -1.953720   2.997550 -49.668700   0.000591  -0.002292 -33.079400   0.003266  -0.004654  10.755100   1.309980   6.555720  67.318100   9.085120  -3.670330  -0.135164 -10.205800  10.212800 -13.350400  -6.686250   6.123930 -42.884900  28.557900  65.059000  19.659400   0.003478  -0.007531   4.829700   0.003083  -0.001095  33.901100   8.529520  12.446300  28.499600  -0.004328  -0.006786  19.949800  -0.000179  -0.001534  28.355200   1.408120   2.613560  34.993400  -0.005586  -0.000627  23.305600  -0.004867  -0.004928  26.211500   1.312410   2.664240  26.242000  -0.005133   0.003635  17.477200  -0.004871   0.002278  26.254700   0.268587   0.544508  39.384000   0.000310  -0.003272  26.229700  -0.003621   0.002515   2.857130  11.268900   2.943730   1.376980   0.041487   6.736740  -2.745970  -4.074560   1.099780   0.000000   0.000000   0.000000   3.554900   9.772970   0.067792  -1.129320   2.676140  -6.760050  -0.012832  -5.082700  -0.823558   0.000000   0.000000  -0.000000
 -0.779727  89.515300   2.350580  -3.156120  -8.006100  -4.417430   0.641182   5.026210   0.606133   1.235910  10.058700   1.162270   1.660220  -0.863969   0.016208   2.731940  -1.747900   0.879756  -5.661640  -1.361860   0.849746 -73.642100  14.712900  -0.342400  -0.910396  -1.232420 -18.595700  17.229300 -13.607300   8.063410  40.359800  36.507600 -64.712200 -33.602300   0.005575   0.003766 -11.801200   0.006327   0.006054 -32.239000   5.886060  -9.231130 -26.766300  -0.000238   0.001309 -18.736500   0.001208  -0.008064 -28.547600  -1.709950   3.138740 -37.406200   0.003089   0.000641 -24.912500   0.005318   0.000706 -28.671000  -1.716490   3.135170 -39.484300   0.004532  -0.005311 -26.296600   0.004271  -0.006553 -33.050500  -1.950900   2.995030 -49.652300   0.000593  -0.002297 -33.068500   0.003266  -0.004659  10.782800   1.309790   6.624270  67.232800   9.138000  -3.657570  -0.109462 -10.170200  10.211300 -13.264200  -6.659270   6.141200 -42.903100  28.590900  65.132300  19.639900   0.003476  -0.007531   4.819930   0.003079  -0.001082  33.909500   8.547160  12.467200  28.509400  -0.004324  -0.006786  19.956600  -0.000180  -0.001522  28.363100   1.407560   2.609620  35.067900  -0.005576  -0.000585  23.355200  -0.004863  -0.004897  26.242900   1.312410   2.660030  26.273400  -0.005125   0.003634  17.498100  -0.004868   0.002267  26.361100   0.281719   0.568528  39.543700   0.000319  -0.003252  26.336100  -0.003616   0.002505   2.866970  11.268300   2.943600   1.377650   0.048040   6.736710  -2.745960  -4.103680   1.112430  -0.000000   0.000000  -0.000000   3.538820   9.772330   0.041568  -1.093700   2.651170  -6.726470  -0.032385  -5.083060  -0.805187  -0.000000   0.000000   0.000000
 -0.779571  89.515300   2.370580  -3.163870  -7.989660  -4.434110   0.635951   5.027730   0.599860   1.225920  10.061700   1.150120   1.663550  -0.849820   0.016246   2.735620  -1.719380   0.896041  -5.661040  -1.354990   0.879972 -73.629700  14.738700  -0.358218  -0.920005  -1.261840 -18.587000  17.215300 -13.605300   8.055970  40.360100  36.506000 -64.714600 -33.601300   0.005561   0.003763 -11.803000   0.006338   0.006129 -32.240600   5.888580  -9.236410 -26.768000  -0.000238   0.001317 -18.737600   0.001199  -0.012727 -28.548400  -1.703650   3.125870 -37.397400   0.003089   0.000643 -24.906700   0.005309   0.000694 -28.671800  -1.710180   3.122320 -39.472300   0.004532  -0.005311 -26.288600   0.004271  -0.006550 -33.037800  -1.942040   2.983270 -49.633000   0.000597  -0.002306 -33.055600   0.003265  -0.004669  10.809500   1.311210   6.696060  67.138300   9.193680  -3.645470  -0.095177 -10.130200  10.211100 -13.152700  -6.629290   6.159490 -42.909300  28.609600  65.187600  19.629300   0.003475  -0.007521   4.814620   0.003071  -0.001079  33.915600   8.560680  12.482200  28.515800  -0.004314  -0.006796  19.961100  -0.000179  -0.001504  28.370800   1.411840   2.614950  35.144600  -0.005558  -0.000524  23.406400  -0.004863  -0.004849  26.267400   1.316020   2.665200  26.298000  -0.005112   0.003640  17.514500  -0.004861   0.002249  26.442500   0.287670   0.578463  39.666000   0.000332  -0.003224  26.417500  -0.003605   0.002489   2.876080  11.268700   2.945570   1.376350   0.060336   6.736600  -2.746160  -4.131530   1.127400  -0.000000   0.000000  -0.000000   3.533620   9.774760   0.000584  -1.071890   2.634900  -6.680370  -0.046702  -5.081050  -0.789140   0.000000   0.000000  -0.000000
 -0.779499  89.515400   2.390550  -3.173730  -7.975930  -4.451870   0.630931   5.031640   0.589727   1.216690  10.069300   1.130140   1.669910  -0.836263   0.016295   2.745050  -1.691920   0.909023  -5.660500  -1.339270   0.914360 -73.616000  14.775700  -0.374981  -0.932588  -1.299660 -18.582300  17.202100 -13.605200   8.046560  40.357200  36.504800 -64.722100 -33.600300   0.005540   0.003754 -11.805000   0.006350   0.006150 -32.246800   5.893410  -9.244130 -26.773900  -0.000239   0.001326 -18.741700   0.001185  -0.020115 -28.549800  -1.690620   3.103480 -37.377300   0.003089   0.000645 -24.893300   0.005296   0.000680 -28.673100  -1.697150   3.099910 -39.462500   0.004532  -0.005311 -26.282100   0.004272  -0.006546 -33.030700  -1.927880   2.962020 -49.620800   0.000602  -0.002318 -33.047500   0.003264  -0.004682  10.833100   1.322260   6.769380  67.027200   9.251870  -3.620950  -0.088775 -10.066800  10.214600 -12.992100  -6.578310   6.180530 -42.917500  28.627200  65.238700  19.615400   0.003475  -0.007503   4.807690   0.003060  -0.001073  33.915700   8.573780  12.501600  28.519000  -0.004304  -0.006812  19.963300  -0.000179  -0.001483  28.376400   1.418770   2.624430  35.200400  -0.005533  -0.000458  23.443500  -0.004862  -0.004792  26.295600   1.322520   2.674260  26.326500  -0.005096   0.003648  17.533500  -0.004851   0.002226  26.512100   0.292919   0.587185  39.770400   0.000349  -0.003188  26.487100  -0.003588   0.002468   2.886630  11.271600   2.948470   1.375360   0.068862   6.736390  -2.746090  -4.158640   1.144790   0.000000   0.000000  -0.000000   3.529970   9.780250  -0.048408  -1.050150   2.619780  -6.628120  -0.059932  -5.076750  -0.769696   0.000000   0.000000   0.000000
 -0.780409  89.515500   2.411240  -3.184680  -7.967250  -4.469090   0.625749   5.039480   0.574057   1.207590  10.084900   1.099020   1.683700  -0.824976   0.016348   2.767550  -1.668630   0.918600  -5.657010  -1.318930   0.951824 -73.600200  14.831300  -0.388613  -0.950839  -1.351030 -18.590800  17.190000 -13.612000   8.031620  40.357700  36.513000 -64.748200 -33.602000   0.005504   0.003699 -11.806900   0.006357   0.004807 -32.264200   5.900150  -9.247670 -26.788700  -0.000248   0.001336 -18.752100   0.001176  -0.025437 -28.550600  -1.673670   3.072560 -37.350100   0.003089   0.000646 -24.875100   0.005281   0.000662 -28.673800  -1.680230   3.068980 -39.457600   0.004532  -0.005312 -26.278900   0.004273  -0.006541 -33.034900  -1.908830   2.932350 -49.625700   0.000606  -0.002334 -33.050800   0.003266  -0.004696  10.845200   1.352960   6.830110  66.906700   9.301670  -3.567250  -0.096917  -9.967990  10.222000 -12.766600  -6.494220   6.205530 -42.939500  28.649300  65.274400  19.590100   0.003478  -0.007484   4.795060   0.003051  -0.001053  33.886400   8.584010  12.530500  28.498500  -0.004300  -0.006823  19.948900  -0.000177  -0.001462  28.377000   1.422310   2.630610  35.207300  -0.005503  -0.000395  23.448000  -0.004859  -0.004730  26.333600   1.327560   2.680000  26.364700  -0.005079   0.003653  17.558900  -0.004838   0.002200  26.554000   0.300291   0.600852  39.833400   0.000370  -0.003144  26.529100  -0.003569   0.002442   2.899460  11.287600   2.949380   1.372070   0.064376   6.736230  -2.745020  -4.176520   1.163370   0.000000   0.000000   0.000000   3.522740   9.790080  -0.100093  -1.022240   2.604310  -6.577520  -0.072270  -5.072240  -0.744472   0.000000   0.000000   0.000000
